<svg width="13911" height="1751" viewBox="0 0 13911 1751" fill="none" xmlns="http://www.w3.org/2000/svg">
<path d="M0 0H13911V50H0V0Z" fill="#AE8338"/>
<path d="M0 100H13911V150H0V100Z" fill="#D4A861"/>
<path d="M0 50H13911V100H0V50Z" fill="#EDD19F"/>
<path d="M0 150H13911V200H0V150Z" fill="#EDD19F"/>
<path d="M0 1451H13911V1501H0V1451Z" fill="#AE8338"/>
<path d="M0 1551H13911V1601H0V1551Z" fill="#D4A861"/>
<path d="M0 200H13911V250H0V200Z" fill="#D4A861"/>
<path d="M0 1501H13911V1551H0V1501Z" fill="#EDD19F"/>
<path d="M0 1601H13911V1651H0V1601Z" fill="#EDD19F"/>
<path d="M0 250H13911V300H0V250Z" fill="#EDD19F"/>
<path d="M0 1651H13911V1701H0V1651Z" fill="#D4A861"/>
<path d="M0 1701H13911V1751H0V1701Z" fill="#EDD19F"/>
<path d="M12261 300H13911V1451H12261V300Z" fill="#D89F5A"/>
<path d="M6130 300H7780V1451H6130V300Z" fill="#D89F5A"/>
<path d="M0 300H1650V1451H0V300Z" fill="#D89F5A"/>
<path d="M1650 300H6130V1451H1650V300Z" fill="#735533"/>
<path d="M7781 300H12261V1451H7781V300Z" fill="#735533"/>
</svg>
